# xmcd
#
# Track frame offsets:
#	150
#	19640
#	30347
#	43480
#	56977
#	67375
#	80695
#	98485
#	114485
#	132447
#	145130
#	159315
#	173355
#	186445
#	203442
#	217910
#	229875
#	241342
#
# Disc length: 3456
#
# Revision: 1
# Processed by: cddbd v1.5.1PL0 Copyright (c) Steve Scherf et al.
# Submitted via: OrangeCD 5.0
# Normalized: r0:DSETVAR1
#
DISCID=f80d7e12
DTITLE=Various Artist - Dedicated To You
DYEAR=1900
DGENRE=Country
TTITLE0=Kenny Rogers - Coward of the County
TTITLE1=Dolly Parton - Love is Like a Butterfly
TTITLE2=Jim Reeves - Have I Told Yu Lately That I Love You
TTITLE3=Daniel O'Donnell - Roses are Red
TTITLE4=Connie Francis - Who's Sorry Now?
TTITLE5=Dr. Hook - Years From Now
TTITLE6=Rose Marie - I Don't Know Why I Love You But I Do
TTITLE7=Billie Jo Spears - Blanket on the Ground
TTITLE8=Bobby Goldsboro - Honey
TTITLE9=Charley Pride - Crystal Chandeliers
TTITLE10=Mike Berry - The Sunshine of Your Smile
TTITLE11=Boxcar Willie - You Are My Sunshine
TTITLE12=Dolly Parton - I Will Always Love You
TTITLE13=Daniel O'Donnell - I Need You
TTITLE14=Rose Marie - The Anniversary Waltz
TTITLE15=Roger Miller - Little Green Apples
TTITLE16=Sandy Posey - The Single Girl
TTITLE17=Roger Whittaker - The Last Farewell
EXTD=
EXTT0=
EXTT1=
EXTT2=
EXTT3=
EXTT4=
EXTT5=
EXTT6=
EXTT7=
EXTT8=
EXTT9=
EXTT10=
EXTT11=
EXTT12=
EXTT13=
EXTT14=
EXTT15=
EXTT16=
EXTT17=
PLAYORDER=
